<svg xmlns="http://www.w3.org/2000/svg" width="52.263" height="67.615" viewBox="0 0 52.263 67.615">
  <path id="Path_111" data-name="Path 111" d="M-3196.487,139.615h-2.491V97.391a14.625,14.625,0,0,0-2.823-8.9l-7.637-9.7,1.679-2.542,7.638,9.7a18.818,18.818,0,0,1,3.634,11.444Zm-20.181,0H-3243.4a5.512,5.512,0,0,1-5.347-5.635V77.635A5.512,5.512,0,0,1-3243.4,72h27.8a5.512,5.512,0,0,1,5.347,5.635v33.34l7.173,7.561-1.513,1.593-10.556-11.124a3.486,3.486,0,0,0-2.6-1.169,3.454,3.454,0,0,0-2.187.781,3.73,3.73,0,0,0-1.265,2.645,3.775,3.775,0,0,0,1.011,2.764l7.485,7.888a1.174,1.174,0,0,1,.134,1.422,26.519,26.519,0,0,0-4.1,14.262v2.015Zm-29.944-9.015v3.38a3.3,3.3,0,0,0,3.208,3.381h24.6a28.968,28.968,0,0,1,3.974-14.5l-6.876-7.247a6.1,6.1,0,0,1-1.635-4.466,6.033,6.033,0,0,1,2.04-4.277,5.52,5.52,0,0,1,3.547-1.289,5.575,5.575,0,0,1,4.115,1.823l1.245,1.311V81.015h-34.222v47.331h26.736V130.6Zm3.208-56.346a3.3,3.3,0,0,0-3.208,3.381v1.127h34.222V77.635a3.3,3.3,0,0,0-3.208-3.381Zm15.538,60.38h-2.49v-2.49h2.49v2.489Zm1.392-8.322h-4.981a2.483,2.483,0,0,1-2.421-1.9,2.493,2.493,0,0,0,.07-.588v-4.982a2.493,2.493,0,0,0-.07-.588,2.482,2.482,0,0,1,2.421-1.9h4.981a2.493,2.493,0,0,1,2.491,2.49v4.982A2.494,2.494,0,0,1-3226.473,126.311Zm-4.981-7.473v4.982h4.981v-4.982h-4.981Zm-4.842,7.473h-4.981a2.494,2.494,0,0,1-2.49-2.491v-4.982a2.493,2.493,0,0,1,2.49-2.49h4.981a2.482,2.482,0,0,1,2.421,1.9,2.514,2.514,0,0,0-.07.588v4.982a2.515,2.515,0,0,0,.07.588A2.483,2.483,0,0,1-3236.3,126.311Zm-4.981-7.473v4.982h4.981v-4.982h-4.981Zm14.8-3.614h-4.981a2.483,2.483,0,0,1-2.421-1.9,2.493,2.493,0,0,0,.07-.588v-4.982a2.493,2.493,0,0,0-.07-.588,2.482,2.482,0,0,1,2.421-1.9h4.981a2.494,2.494,0,0,1,2.491,2.49v4.982A2.494,2.494,0,0,1-3226.473,115.224Zm-4.981-7.473v4.982h4.981v-4.982Zm-4.842,7.473h-4.981a2.494,2.494,0,0,1-2.49-2.491v-4.982a2.493,2.493,0,0,1,2.49-2.49h4.981a2.482,2.482,0,0,1,2.421,1.9,2.514,2.514,0,0,0-.07.588v4.982a2.516,2.516,0,0,0,.07.588A2.483,2.483,0,0,1-3236.3,115.224Zm-4.981-7.473v4.982h4.981v-4.982Zm25.38-3.614h-4.981a2.494,2.494,0,0,1-2.49-2.491V96.665a2.493,2.493,0,0,1,2.49-2.49h4.981a2.493,2.493,0,0,1,2.491,2.49v4.981A2.494,2.494,0,0,1-3215.9,104.137Zm-4.981-7.473v4.981h4.981V96.665Zm-5.594,7.473h-4.981a2.483,2.483,0,0,1-2.421-1.9,2.493,2.493,0,0,0,.07-.588V96.665a2.491,2.491,0,0,0-.07-.588,2.483,2.483,0,0,1,2.421-1.9h4.981a2.493,2.493,0,0,1,2.491,2.49v4.981A2.494,2.494,0,0,1-3226.473,104.137Zm-4.981-7.473v4.981h4.981V96.665Zm-4.842,7.473h-4.981a2.494,2.494,0,0,1-2.49-2.491V96.665a2.493,2.493,0,0,1,2.49-2.49h4.981a2.483,2.483,0,0,1,2.421,1.9,2.512,2.512,0,0,0-.07.588v4.981a2.515,2.515,0,0,0,.07.588A2.483,2.483,0,0,1-3236.3,104.137Zm-4.981-7.473v4.981h4.981V96.665Zm25.38-3.614h-4.981a2.494,2.494,0,0,1-2.49-2.491V85.577a2.493,2.493,0,0,1,2.49-2.49h4.981a2.493,2.493,0,0,1,2.491,2.49v4.981A2.494,2.494,0,0,1-3215.9,93.05Zm-4.981-7.473v4.981h4.981V85.577Zm-5.594,7.473h-4.981a2.483,2.483,0,0,1-2.421-1.9,2.493,2.493,0,0,0,.07-.588V85.577a2.491,2.491,0,0,0-.07-.588,2.483,2.483,0,0,1,2.421-1.9h4.981a2.493,2.493,0,0,1,2.491,2.49v4.981A2.494,2.494,0,0,1-3226.473,93.05Zm-4.981-7.473v4.981h4.981V85.577Zm-4.842,7.473h-4.981a2.494,2.494,0,0,1-2.49-2.491V85.577a2.493,2.493,0,0,1,2.49-2.49h4.981a2.483,2.483,0,0,1,2.421,1.9,2.512,2.512,0,0,0-.07.588v4.981a2.516,2.516,0,0,0,.07.588A2.483,2.483,0,0,1-3236.3,93.05Zm-4.981-7.473v4.981h4.981V85.577Z" transform="translate(3248.75 -72)" fill="#204d77"/>
</svg>
