<svg xmlns="http://www.w3.org/2000/svg" width="49.929" height="38.28" viewBox="0 0 49.929 38.28">
  <path id="Path_114" data-name="Path 114" d="M-3030.8-691.944a2.5,2.5,0,0,1-2.5-2.5v-33.286a2.5,2.5,0,0,1,2.5-2.5h44.936a2.5,2.5,0,0,1,2.5,2.5v33.286a2.5,2.5,0,0,1-2.5,2.5Zm-.833-35.783v33.286a.832.832,0,0,0,.833.833h44.936a.832.832,0,0,0,.833-.833v-33.286a.832.832,0,0,0-.833-.832H-3030.8A.832.832,0,0,0-3031.628-727.727Zm2.3,32.449a.836.836,0,0,1-.616-.575.83.83,0,0,1,.2-.819l11.649-12.482a.835.835,0,0,1,.8-.258.83.83,0,0,1,.616.575.829.829,0,0,1-.2.818l-11.649,12.482a.833.833,0,0,1-.622.279A.83.83,0,0,1-3029.325-695.279Zm41.194-.259-11.65-12.482a.833.833,0,0,1-.2-.818.832.832,0,0,1,.616-.575.834.834,0,0,1,.8.258l11.65,12.482a.832.832,0,0,1-.054,1.162.828.828,0,0,1-.567.224A.829.829,0,0,1-2988.132-695.538Zm-22.337-13.761-19.2-16.126a.834.834,0,0,1-.284-.782.833.833,0,0,1,.536-.638.834.834,0,0,1,.819.145l19.2,16.127a1.663,1.663,0,0,0,2.142,0l19.2-16.127a.837.837,0,0,1,.607-.192.831.831,0,0,1,.565.294.833.833,0,0,1,.192.607.833.833,0,0,1-.294.565l-19.2,16.126a3.318,3.318,0,0,1-2.141.781A3.319,3.319,0,0,1-3010.469-709.3Z" transform="translate(3033.292 730.224)" fill="#204d77"/>
</svg>
