<svg id="facebook" xmlns="http://www.w3.org/2000/svg" width="50" height="50" viewBox="0 0 50 50">
  <g id="Group_6" data-name="Group 6">
    <path id="Path_51" data-name="Path 51" d="M37.46,0H12.5A12.558,12.558,0,0,0,0,12.54V37.5A12.55,12.55,0,0,0,12.5,50H37.46A12.566,12.566,0,0,0,50,37.46V12.54A12.566,12.566,0,0,0,37.46,0ZM31.706,25H26.984V40.476H21.032V25H17.857V18.651h2.778v-2.7c0-2.54,1.27-6.548,6.627-6.548h4.881v5.278H28.69c-.556,0-1.31.357-1.31,1.587v2.381h4.881Z" transform="translate(0 0)" fill="#204d77"/>
  </g>
</svg>
