<svg xmlns="http://www.w3.org/2000/svg" width="58" height="58" viewBox="0 0 58 58">
  <path id="landing-page" d="M94.526,56.858C94.526,57.487,93.841,58,93,58s-1.526-.513-1.526-1.142.685-1.142,1.526-1.142S94.526,56.229,94.526,56.858ZM83.537,48.752c0-1.259,1.369-2.283,3.053-2.283H99.411c1.683,0,3.053,1.024,3.053,2.283v2.283c0,1.259-1.369,2.283-3.053,2.283H86.589c-1.683,0-3.053-1.024-3.053-2.283Zm3.053,2.283H99.411V48.752H86.589Zm14.347-6.85c.843,0,1.526-.511,1.526-1.142s-.683-1.142-1.526-1.142H85.063c-.843,0-1.526.511-1.526,1.142s.683,1.142,1.526,1.142ZM80.789,31.626c0,1.889-2.054,3.425-4.579,3.425s-4.579-1.537-4.579-3.425S73.686,28.2,76.211,28.2,80.789,29.737,80.789,31.626Zm-3.053,0c0-.63-.685-1.142-1.526-1.142s-1.526.512-1.526,1.142.685,1.142,1.526,1.142S77.737,32.256,77.737,31.626Zm19.842,0c0,1.889-2.054,3.425-4.579,3.425s-4.579-1.537-4.579-3.425S90.475,28.2,93,28.2,97.579,29.737,97.579,31.626Zm-3.053,0c0-.63-.685-1.142-1.526-1.142s-1.526.512-1.526,1.142.685,1.142,1.526,1.142S94.526,32.256,94.526,31.626Zm19.842,0c0,1.889-2.054,3.425-4.579,3.425s-4.579-1.537-4.579-3.425,2.054-3.425,4.579-3.425S114.368,29.737,114.368,31.626Zm-3.053,0c0-.63-.685-1.142-1.526-1.142s-1.526.512-1.526,1.142.685,1.142,1.526,1.142S111.316,32.256,111.316,31.626ZM75,15.063a1.91,1.91,0,0,0-2.159,0l-2.289,1.713a.953.953,0,0,0,0,1.615L72.842,20.1A1.91,1.91,0,0,0,75,20.1a.953.953,0,0,0,0-1.615l-1.21-.905L75,16.677A.953.953,0,0,0,75,15.063Zm40.447,1.713-2.289-1.713a1.91,1.91,0,0,0-2.159,0,.953.953,0,0,0,0,1.615l1.21.905-1.21.905a.953.953,0,0,0,0,1.615,1.91,1.91,0,0,0,2.159,0l2.289-1.713a.953.953,0,0,0,0-1.615ZM65.526,58C64.683,58,64,57.489,64,56.858V3.425C64,1.533,66.05,0,68.579,0h48.842C119.95,0,122,1.533,122,3.425V56.858c0,.631-.683,1.142-1.526,1.142H99.868c-.876,0-1.583-.556-1.523-1.221.055-.606.766-1.062,1.577-1.062h19.024v-16.1H67.053v16.1H86.077c.812,0,1.522.457,1.577,1.062.06.665-.647,1.221-1.523,1.221Zm53.421-34.366V11.417H106.1a3.382,3.382,0,0,1,.634,1.941c0,2.329-2.533,4.224-5.647,4.224s-5.647-1.9-5.647-4.224a3.382,3.382,0,0,1,.634-1.941H67.053V23.634H79.32l6.941-6.112a5.647,5.647,0,0,1,6.98,0l6.941,6.112ZM90.914,19a1.88,1.88,0,0,0-2.327,0l-5.262,4.633H96.176Zm10.175-7.583c-1.431,0-2.595.871-2.595,1.941s1.164,1.941,2.595,1.941,2.595-.871,2.595-1.941-1.164-1.941-2.595-1.941ZM67.053,9.134h51.895V3.425c0-.63-.685-1.142-1.526-1.142H68.579c-.842,0-1.526.512-1.526,1.142Zm51.895,28.2V25.917H67.053V37.335ZM73.165,5.709c0,.631-.683,1.142-1.526,1.142s-1.526-.511-1.526-1.142.683-1.142,1.526-1.142S73.165,5.078,73.165,5.709Zm6.868,0c0,.631-.683,1.142-1.526,1.142s-1.526-.511-1.526-1.142.683-1.142,1.526-1.142S80.033,5.078,80.033,5.709Zm6.868,0c0,.631-.683,1.142-1.526,1.142s-1.526-.511-1.526-1.142.683-1.142,1.526-1.142S86.9,5.078,86.9,5.709Z" transform="translate(-64)" fill="#204d77"/>
</svg>
