<svg id="linkedin" xmlns="http://www.w3.org/2000/svg" width="50" height="50" viewBox="0 0 50 50">
  <g id="Group_5" data-name="Group 5">
    <path id="Path_50" data-name="Path 50" d="M37.431.2H12.53A12.561,12.561,0,0,0,0,12.74V37.7A12.553,12.553,0,0,0,12.53,50.2H37.47A12.561,12.561,0,0,0,50,37.66V12.74A12.621,12.621,0,0,0,37.431.2ZM16.653,40.676H9.516V20.041h7.137Zm-3.608-23.81a3.651,3.651,0,1,1,3.648-3.651A3.691,3.691,0,0,1,13.045,16.867Zm27.439,23.81H34.5v-10c0-2.421-.317-5.516-3.608-5.516-3.37,0-3.925,2.619-3.925,5.357V40.676H21.015V20.041h5.551v2.778h.159C27.6,21.232,29.619,20,32.791,20c6.542,0,7.692,3.77,7.692,9.365v11.31Z" transform="translate(0 -0.2)" fill="#204d77"/>
  </g>
</svg>
