<svg xmlns="http://www.w3.org/2000/svg" width="52" height="45" viewBox="0 0 52 45">
  <path id="Path_119" data-name="Path 119" d="M-2990.778-1469.943c-.752-.753-1.12-1.086-1.985-1.086s-1.233.333-1.984,1.086a5.443,5.443,0,0,1-4.135,1.98,5.444,5.444,0,0,1-4.135-1.98c-.751-.753-1.12-1.086-1.984-1.086s-1.233.333-1.985,1.086a5.442,5.442,0,0,1-4.134,1.98,5.443,5.443,0,0,1-4.135-1.98c-.751-.753-1.12-1.086-1.984-1.086s-1.233.333-1.985,1.086a5.444,5.444,0,0,1-4.135,1.98,5.443,5.443,0,0,1-4.135-1.98c-.751-.753-1.12-1.086-1.984-1.086a1.529,1.529,0,0,1-1.524-1.534,1.529,1.529,0,0,1,1.524-1.534,5.442,5.442,0,0,1,4.135,1.98c.751.753,1.121,1.087,1.985,1.087s1.233-.334,1.984-1.087a5.443,5.443,0,0,1,4.135-1.98,5.441,5.441,0,0,1,4.134,1.98c.752.753,1.121,1.087,1.985,1.087s1.233-.334,1.984-1.087a5.446,5.446,0,0,1,4.135-1.98,5.443,5.443,0,0,1,4.135,1.98c.751.753,1.12,1.087,1.984,1.087s1.233-.334,1.985-1.087a5.444,5.444,0,0,1,4.135-1.98,5.443,5.443,0,0,1,4.135,1.98c.752.753,1.12,1.087,1.985,1.087s1.233-.334,1.984-1.087a5.446,5.446,0,0,1,4.135-1.98,1.529,1.529,0,0,1,1.524,1.534,1.529,1.529,0,0,1-1.524,1.534c-.864,0-1.233.333-1.985,1.086a5.442,5.442,0,0,1-4.135,1.98A5.443,5.443,0,0,1-2990.778-1469.943Zm0-6.942c-.752-.754-1.121-1.087-1.985-1.087s-1.233.333-1.984,1.087a5.443,5.443,0,0,1-4.135,1.98,5.444,5.444,0,0,1-4.135-1.98c-.751-.754-1.12-1.087-1.984-1.087s-1.233.333-1.985,1.087a5.443,5.443,0,0,1-4.135,1.98,5.442,5.442,0,0,1-4.134-1.98c-.752-.754-1.267-1.253-2.413-1.053-.4.131-.535.028-1.556,1.053a5.444,5.444,0,0,1-4.135,1.98,5.443,5.443,0,0,1-4.135-1.98c-.751-.754-1.12-1.087-1.984-1.087A1.528,1.528,0,0,1-3031-1479.5a1.529,1.529,0,0,1,1.524-1.534,5.442,5.442,0,0,1,4.135,1.98c.751.753,1.121,1.086,1.985,1.086,1.4,0,1.751-1.112,3.145-2.12A16.883,16.883,0,0,1-3005-1504.038a16.881,16.881,0,0,1,15.212,23.946c1.407,1.018,1.743,2.12,3.146,2.12.864,0,1.233-.333,1.984-1.086a5.445,5.445,0,0,1,4.135-1.98A1.529,1.529,0,0,1-2979-1479.5a1.528,1.528,0,0,1-1.524,1.533c-.864,0-1.233.333-1.985,1.087a5.444,5.444,0,0,1-4.135,1.98A5.443,5.443,0,0,1-2990.778-1476.885Zm-10.089-2.173c.752.753,1.12,1.086,1.984,1.086s1.233-.333,1.986-1.086a5.384,5.384,0,0,1,4.181-1.979A13.816,13.816,0,0,0-3005-1500.971a13.771,13.771,0,0,0-13.71,13.8,13.876,13.876,0,0,0,1.427,6.134,5.363,5.363,0,0,1,4.18,1.979c.751.753,1.12,1.086,1.984,1.086s1.233-.333,1.984-1.086a5.446,5.446,0,0,1,4.135-1.98A5.443,5.443,0,0,1-3000.866-1479.058Zm17.164-6.588a1.532,1.532,0,0,1-1.533-1.533,1.533,1.533,0,0,1,1.533-1.534h3.067a1.533,1.533,0,0,1,1.532,1.534,1.532,1.532,0,0,1-1.532,1.533Zm-45.661,0a1.533,1.533,0,0,1-1.534-1.533,1.534,1.534,0,0,1,1.534-1.534h3.066a1.534,1.534,0,0,1,1.534,1.534,1.533,1.533,0,0,1-1.534,1.533Zm2.52-12.335a1.534,1.534,0,0,1-.562-2.1,1.533,1.533,0,0,1,2.094-.561l2.656,1.533a1.535,1.535,0,0,1-.768,2.862C-3024.117-1496.243-3024.259-1496.56-3026.844-1497.982Zm38.938.972a1.532,1.532,0,0,1,.561-2.094l2.656-1.534a1.533,1.533,0,0,1,2.094.561,1.534,1.534,0,0,1-.561,2.1l-2.656,1.533a1.526,1.526,0,0,1-.766.206A1.529,1.529,0,0,1-2987.906-1497.01Zm-7.209-7.15a1.534,1.534,0,0,1-.562-2.094l1.534-2.656a1.533,1.533,0,0,1,2.094-.562,1.534,1.534,0,0,1,.562,2.094l-1.534,2.656a1.53,1.53,0,0,1-1.329.767A1.528,1.528,0,0,1-2995.115-1504.159Zm-21.865-.562-1.533-2.655a1.533,1.533,0,0,1,.561-2.1,1.533,1.533,0,0,1,2.094.562l1.533,2.656a1.533,1.533,0,0,1-.561,2.094,1.531,1.531,0,0,1-.766.205A1.532,1.532,0,0,1-3016.98-1504.721Zm10.446-3.642v-3.066a1.534,1.534,0,0,1,1.533-1.534,1.534,1.534,0,0,1,1.534,1.534v3.066a1.534,1.534,0,0,1-1.534,1.534A1.534,1.534,0,0,1-3006.534-1508.363Z" transform="translate(3031 1512.963)" fill="#204d77"/>
</svg>
