<svg xmlns="http://www.w3.org/2000/svg" width="52" height="45" viewBox="0 0 52 45">
  <path id="Path_123" data-name="Path 123" d="M-3319.556-1524.468a21.569,21.569,0,0,1,4.3-12.845,25.8,25.8,0,0,1,11.114-8.506,2.417,2.417,0,0,1,2.68.569,1.82,1.82,0,0,1,.03,2.453,16.888,16.888,0,0,0-4.215,11.1c0,7.916,5.678,14.906,14.128,17.393a.774.774,0,0,1,.564,1,.916.916,0,0,1-1.121.5,22.351,22.351,0,0,1-11.012-7.132,18.318,18.318,0,0,1-4.334-11.763,18.351,18.351,0,0,1,4.579-12.065.375.375,0,0,0-.006-.507.5.5,0,0,0-.553-.118,24.057,24.057,0,0,0-10.367,7.934,20.111,20.111,0,0,0-4.007,11.979c0,12.068,11.03,21.887,24.589,21.887a26.717,26.717,0,0,0,13.458-3.567,22.869,22.869,0,0,0,8.915-9.228.383.383,0,0,0-.132-.493.509.509,0,0,0-.571-.005,23.969,23.969,0,0,1-13.553,4.076,25.213,25.213,0,0,1-4.009-.32.8.8,0,0,1-.715-.919.885.885,0,0,1,1.032-.636,23.236,23.236,0,0,0,3.691.3,22.067,22.067,0,0,0,12.476-3.752,2.457,2.457,0,0,1,2.756.026,1.854,1.854,0,0,1,.64,2.387,24.516,24.516,0,0,1-9.556,9.892,28.642,28.642,0,0,1-14.431,3.825C-3307.729-1501-3319.556-1511.528-3319.556-1524.468Zm-.021,19.02a2.939,2.939,0,0,1,2.936-2.936,2.938,2.938,0,0,1,2.935,2.936,2.938,2.938,0,0,1-2.935,2.935A2.938,2.938,0,0,1-3319.577-1505.448Zm1.887,0a1.049,1.049,0,0,0,1.049,1.048,1.049,1.049,0,0,0,1.048-1.048,1.049,1.049,0,0,0-1.048-1.049A1.049,1.049,0,0,0-3317.69-1505.448Zm-3.31-5.863a1.183,1.183,0,0,1,1.183-1.183,1.184,1.184,0,0,1,1.183,1.183,1.183,1.183,0,0,1-1.183,1.183A1.183,1.183,0,0,1-3321-1511.311Zm35.1-12.766a2.934,2.934,0,0,1,1.188-2.358,1.18,1.18,0,0,1-.116-.512,1.183,1.183,0,0,1,1.183-1.183,1.182,1.182,0,0,1,1.182,1.16,2.94,2.94,0,0,1,2.433,2.893,2.938,2.938,0,0,1-2.935,2.935A2.939,2.939,0,0,1-3285.9-1524.076Zm1.887,0a1.049,1.049,0,0,0,1.049,1.048,1.049,1.049,0,0,0,1.049-1.048,1.05,1.05,0,0,0-1.049-1.048A1.05,1.05,0,0,0-3284.009-1524.076Zm-7.946.973a1.183,1.183,0,0,1,1.183-1.182,1.183,1.183,0,0,1,1.183,1.182,1.183,1.183,0,0,1-1.183,1.184A1.183,1.183,0,0,1-3291.955-1523.1Zm.18-4a4.048,4.048,0,0,0-4.043-4.043.943.943,0,0,1-.943-.943.943.943,0,0,1,.943-.943,4.048,4.048,0,0,0,4.043-4.044.943.943,0,0,1,.944-.943.944.944,0,0,1,.943.943,4.048,4.048,0,0,0,4.043,4.044.943.943,0,0,1,.943.943.943.943,0,0,1-.943.943,4.048,4.048,0,0,0-4.043,4.043.944.944,0,0,1-.943.944A.944.944,0,0,1-3291.775-1527.1Zm-.837-4.986a5.974,5.974,0,0,1,1.781,1.78,5.976,5.976,0,0,1,1.779-1.78,5.976,5.976,0,0,1-1.779-1.78A5.973,5.973,0,0,1-3292.612-1532.087Z" transform="translate(3321 1546)" fill="#204d77"/>
</svg>
