<svg xmlns="http://www.w3.org/2000/svg" width="50" height="50" viewBox="0 0 50 50">
  <path id="Path_109" data-name="Path 109" d="M-2903.744,129a2.087,2.087,0,0,1-2.085-2.085V105.133a2.087,2.087,0,0,1,2.085-2.085h10.659a2.088,2.088,0,0,1,2.085,2.085v14.6h-1.854v-14.6a.231.231,0,0,0-.231-.231h-10.659a.232.232,0,0,0-.232.231v21.781a.233.233,0,0,0,.232.232h10.659a.232.232,0,0,0,.231-.232v-5.329H-2891v5.329a2.088,2.088,0,0,1-2.085,2.085Zm4.4-2.78v-1.854h1.854v1.854Zm-18.3,0a2.089,2.089,0,0,1-2.085-2.085v-.7h-7.365a.927.927,0,0,1-.927-.927v-.817a3.234,3.234,0,0,1,2.711-3.2l.721-.12a2.541,2.541,0,0,0,2.129-2.514v-1.69h-16.452a2.088,2.088,0,0,1-2.085-2.085V90.072h.019a2.089,2.089,0,0,1,2.066-1.8h2.549V79.927a.927.927,0,0,1,.927-.927h40.782a.927.927,0,0,1,.927.927V96.611h-.05v4.584h-1.853V94.938a.233.233,0,0,0-.232-.232h-21.781a.232.232,0,0,0-.231.232v11.817h1.9v1.854h-1.9v.05h1.9v1.853h-1.9v1.8h1.9v1.854h-1.9v5.561h10.2v1.854h-8.292v1.853h-1.9v.7a.231.231,0,0,0,.231.231h9.964v1.854Zm-2.962-10.359a4.39,4.39,0,0,1-3.679,4.342l-.72.12a1.386,1.386,0,0,0-1.158,1.263h6.434V114.17h-.876Zm-18.537-3.775a.231.231,0,0,0,.231.231h19.183v-1.8h-15.707a.927.927,0,0,1-.927-.927v-.976h-2.78Zm4.634-3.425h14.78v-.05h-14.78Zm14.78-1.9V94.938a2.088,2.088,0,0,1,2.085-2.085h21.781a2.1,2.1,0,0,1,.282.019V86.414h-38.928v20.341Zm-19.414,0h2.78V90.122h-2.549a.231.231,0,0,0-.231.231v16.4Zm4.634-22.194h38.928V80.853h-38.928ZM-2901.86,115l1.31-1.311,5.56,5.561-1.311,1.31Zm-10.876,4.061a.927.927,0,0,1-.927-.927v-1.854h1.854v.927h.927v1.854Zm14.583-4.643,1.31-1.31,2.78,2.78-1.311,1.31Zm-34.48-10.216a.927.927,0,0,1-.927-.927v-2.78h1.854v1.854h1.853V104.2Zm33.291-1.709v-.927h-.927V99.71h1.854a.927.927,0,0,1,.927.927v1.854Zm-4.258-11.517V89.12h-1.854V87.267h2.78a.927.927,0,0,1,.927.927v2.78Zm-.045-7.34V81.78h1.854v1.854Zm-23.243,0V81.78h1.854v1.854Zm-3.32,0V81.78h1.854v1.854Zm-2.45,0V81.78h1.854v1.854Z" transform="translate(2941 -79)" fill="#5c809f"/>
</svg>
