<svg xmlns="http://www.w3.org/2000/svg" width="59.999" height="50" viewBox="0 0 59.999 50">
  <path id="Path_113" data-name="Path 113" d="M-3354.309,113h-5.382l-.608-2.021a12.975,12.975,0,0,1-2.237-.773l-2.142,1.072-3.805-3.172,1.286-1.785a8.907,8.907,0,0,1-.928-1.865l-2.423-.506v-1.435H-3387v-37.1A2.7,2.7,0,0,1-3384.1,63h54.194a2.7,2.7,0,0,1,2.9,2.419v37.1h-16.451v1.435l-2.425.508a8.811,8.811,0,0,1-.928,1.864l1.286,1.786-3.805,3.171-2.142-1.072a13.059,13.059,0,0,1-2.237.774l-.606,2.018Zm-8.23-4.671h0l.5.255a10.737,10.737,0,0,0,2.769.957l.571.115.519,1.73h2.36l.52-1.731.571-.115a10.769,10.769,0,0,0,2.77-.957l.5-.256,1.838.919,1.668-1.39-1.1-1.531.307-.417a7.341,7.341,0,0,0,1.148-2.309l.138-.475,2.076-.433v-1.966l-2.077-.433-.138-.476a7.364,7.364,0,0,0-1.148-2.308l-.307-.417,1.1-1.532-1.669-1.391-1.838.92-.5-.256a10.767,10.767,0,0,0-2.769-.958l-.571-.114-.519-1.731h-2.36l-.52,1.732-.571.114a10.732,10.732,0,0,0-2.769.958l-.5.256-1.838-.92-1.669,1.391,1.1,1.532-.307.417a7.36,7.36,0,0,0-1.148,2.308l-.138.475-2.076.433v1.966l2.077.434.138.475a7.338,7.338,0,0,0,1.149,2.308l.306.418-1.1,1.531,1.668,1.39,1.837-.919Zm13.219-16.188h0l3.8,3.17L-3346.8,97.1a8.951,8.951,0,0,1,.929,1.865l2.422.5V100.9h14.516V71.065h-56.129V100.9h14.516V99.467l2.425-.507a8.826,8.826,0,0,1,.928-1.865l-1.286-1.786,3.805-3.171,2.142,1.072a13.042,13.042,0,0,1,2.238-.773l.606-2.019h5.382l.608,2.02a12.963,12.963,0,0,1,2.237.774l2.142-1.072ZM-3384.1,64.613a.9.9,0,0,0-.968.806v4.032h56.129V65.419a.9.9,0,0,0-.968-.806Zm26.973,42.866a7.37,7.37,0,0,1-7.361-7.362,7.39,7.39,0,0,1,.885-3.5l1.619.877a5.535,5.535,0,0,0-.664,2.626,5.528,5.528,0,0,0,5.521,5.521,5.531,5.531,0,0,0,2.626-.664l.877,1.619A7.382,7.382,0,0,1-3357.123,107.479Zm.123-2.375a3.685,3.685,0,0,1-3.681-3.681A3.685,3.685,0,0,1-3357,97.742a3.685,3.685,0,0,1,3.681,3.681A3.685,3.685,0,0,1-3357,105.1Zm0-5.521a1.843,1.843,0,0,0-1.841,1.84,1.843,1.843,0,0,0,1.841,1.84,1.843,1.843,0,0,0,1.84-1.84A1.843,1.843,0,0,0-3357,99.582Zm6.6,5.47h0l-1.618-.876a5.536,5.536,0,0,0,.664-2.626,5.528,5.528,0,0,0-5.521-5.521,5.531,5.531,0,0,0-2.626.663l-.877-1.619a7.381,7.381,0,0,1,3.5-.885,7.37,7.37,0,0,1,7.362,7.362,7.382,7.382,0,0,1-.885,3.5Zm9.6-4.384h0V98.828a3.685,3.685,0,0,0,3.68-3.681V90.389a7.119,7.119,0,0,1,1.533-4.444,7.12,7.12,0,0,1-1.533-4.444V76.742a3.684,3.684,0,0,0-3.68-3.68v-1.84a5.527,5.527,0,0,1,5.521,5.521V81.5a5.329,5.329,0,0,0,1.572,3.793l.65.651-.65.651a5.329,5.329,0,0,0-1.572,3.794v4.758A5.528,5.528,0,0,1-3340.8,100.669Zm-32.395,0h0a5.528,5.528,0,0,1-5.521-5.522V90.389a5.332,5.332,0,0,0-1.571-3.794l-.651-.651.651-.651a5.331,5.331,0,0,0,1.571-3.793V76.742a5.527,5.527,0,0,1,5.521-5.521v1.84a3.685,3.685,0,0,0-3.681,3.68V81.5a7.116,7.116,0,0,1-1.532,4.443,7.118,7.118,0,0,1,1.532,4.444v4.758a3.685,3.685,0,0,0,3.681,3.681v1.839Zm31.491-11.749h-11.963V87.08h11.963v1.84Zm-18.626,0h-11.963V87.08h11.963v1.84Zm14.529-3.21H-3368.2v-1.84h22.394v1.84Zm4.1-3.21h-11.963v-1.84h11.963V82.5Zm-18.626,0h-11.963v-1.84h11.963V82.5Zm14.529-3.211H-3368.2v-1.84h22.394v1.84Zm-27.724-10.767h-1.841v-1.84h1.841v1.84Zm-4.271,0h-1.84v-1.84h1.84v1.84Zm-3.681,0h-1.84v-1.84h1.84v1.84Z" transform="translate(3387 -63)" fill="#204d77"/>
</svg>
