<svg xmlns="http://www.w3.org/2000/svg" width="52" height="45" viewBox="0 0 52 45">
  <path id="Path_121" data-name="Path 121" d="M-3167.7-1499a1.036,1.036,0,0,1-.995-1.075,1.036,1.036,0,0,1,.995-1.074h35.392a1.036,1.036,0,0,1,.994,1.074,1.037,1.037,0,0,1-.994,1.075Zm20.493-5.333a1.074,1.074,0,0,1-1.075-1.074,1.075,1.075,0,0,1,1.075-1.075h18.473a1.075,1.075,0,0,1,1.075,1.075,1.074,1.074,0,0,1-1.075,1.074Zm-3.872-1.074a1.077,1.077,0,0,1,1.075-1.075,1.077,1.077,0,0,1,1.074,1.075,1.077,1.077,0,0,1-1.074,1.074A1.077,1.077,0,0,1-3151.075-1505.406Zm-20.2,1.074a1.074,1.074,0,0,1-1.074-1.074,1.075,1.075,0,0,1,1.074-1.075h18.474a1.074,1.074,0,0,1,1.074,1.075,1.073,1.073,0,0,1-1.074,1.074Zm-3.713-4.775a1.046,1.046,0,0,1-1.016-1.074,1.047,1.047,0,0,1,1.016-1.075h9.194a17.128,17.128,0,0,1,3.235-9.113,15.935,15.935,0,0,1,8.255-5.923,1.01,1.01,0,0,1,1.253.743,1.082,1.082,0,0,1-.7,1.325,14.48,14.48,0,0,0-10.005,12.968h27.509a14.479,14.479,0,0,0-10-12.968,1.082,1.082,0,0,1-.7-1.325,1.009,1.009,0,0,1,1.253-.743,15.931,15.931,0,0,1,8.254,5.923,17.138,17.138,0,0,1,3.237,9.113h9.193a1.047,1.047,0,0,1,1.016,1.075,1.046,1.046,0,0,1-1.016,1.074Zm43.308-7.445a1.074,1.074,0,0,1,.689-1.354l5.58-1.813a1.074,1.074,0,0,1,1.354.689,1.073,1.073,0,0,1-.689,1.354l-5.58,1.814a1.07,1.07,0,0,1-.332.053A1.075,1.075,0,0,1-3131.676-1516.552Zm-38,.689-5.58-1.814a1.073,1.073,0,0,1-.689-1.354,1.075,1.075,0,0,1,1.354-.689l5.58,1.813a1.074,1.074,0,0,1,.689,1.354,1.076,1.076,0,0,1-1.021.743A1.072,1.072,0,0,1-3169.678-1515.863Zm33.664-7.862a1.075,1.075,0,0,1,.08-1.517l4.364-3.929a1.073,1.073,0,0,1,1.516.079,1.075,1.075,0,0,1-.079,1.517l-4.364,3.929a1.072,1.072,0,0,1-.719.275A1.071,1.071,0,0,1-3136.014-1523.724Zm-29.489.079-4.364-3.928a1.074,1.074,0,0,1-.079-1.517,1.074,1.074,0,0,1,1.517-.079l4.364,3.929a1.074,1.074,0,0,1,.079,1.517,1.069,1.069,0,0,1-.8.355A1.068,1.068,0,0,1-3165.5-1523.645Zm14.429-1.848a1.077,1.077,0,0,1,1.075-1.074,1.077,1.077,0,0,1,1.074,1.074,1.077,1.077,0,0,1-1.074,1.075A1.077,1.077,0,0,1-3151.075-1525.493Zm8.951-3.084a1.075,1.075,0,0,1-.544-1.418l2.387-5.359a1.074,1.074,0,0,1,1.418-.545,1.075,1.075,0,0,1,.544,1.418l-2.387,5.359a1.073,1.073,0,0,1-.982.637A1.076,1.076,0,0,1-3142.123-1528.577Zm-17.172-.544-2.387-5.359a1.075,1.075,0,0,1,.544-1.418,1.074,1.074,0,0,1,1.418.545l2.386,5.359a1.074,1.074,0,0,1-.544,1.418,1.075,1.075,0,0,1-.437.093A1.072,1.072,0,0,1-3159.3-1529.122Zm8.618.122-4.919-3.988a1.072,1.072,0,0,1-.4-.834v-1.531a1.074,1.074,0,0,1,1.075-1.074h1.669v-6.5a1.074,1.074,0,0,1,1.074-1.075h4.351a1.074,1.074,0,0,1,1.074,1.075v6.5h1.669a1.074,1.074,0,0,1,1.074,1.074v1.531a1.072,1.072,0,0,1-.4.834l-4.918,3.988a1.072,1.072,0,0,1-.677.24A1.069,1.069,0,0,1-3150.677-1529Zm.677-2.218,3.776-3.061h-1.6a1.075,1.075,0,0,1-1.075-1.075v-6.5h-2.2v6.5a1.074,1.074,0,0,1-1.074,1.075h-1.6Z" transform="translate(3176 1544)" fill="#204d77"/>
</svg>
