<svg xmlns="http://www.w3.org/2000/svg" width="50.295" height="50.291" viewBox="0 0 50.295 50.291">
  <path id="Path_115" data-name="Path 115" d="M-3135.182-670.709c-5.78,0-14.188-3.038-25.483-14.333-14.2-14.2-15.353-23.84-13.821-29.425a6.009,6.009,0,0,1,2.739-3.553l4.256-2.557a2.957,2.957,0,0,1,3.985.9l6.789,10.18a2.974,2.974,0,0,1-.647,3.979l-3.811,2.965a1.269,1.269,0,0,0-.335,1.631l.309.563c1.02,1.867,2.292,4.195,6.979,8.885s7.015,5.958,8.884,6.977l.564.311a1.268,1.268,0,0,0,1.625-.342l2.965-3.812a2.971,2.971,0,0,1,3.979-.646l10.18,6.789a2.957,2.957,0,0,1,.9,3.986l-2.56,4.254a6,6,0,0,1-3.554,2.738,14.854,14.854,0,0,1-3.879.515Zm-31.446-48.427-4.257,2.553a4.338,4.338,0,0,0-1.984,2.56c-1.416,5.157-.243,14.164,13.388,27.8s22.64,14.8,27.8,13.388a4.328,4.328,0,0,0,2.556-1.981l2.554-4.257a1.282,1.282,0,0,0-.389-1.729l-10.179-6.789a1.291,1.291,0,0,0-1.726.28l-2.965,3.811a2.933,2.933,0,0,1-3.765.778l-.551-.3c-1.964-1.072-4.406-2.4-9.269-7.265s-6.193-7.3-7.265-9.269l-.3-.55a2.934,2.934,0,0,1,.777-3.765l3.812-2.965a1.291,1.291,0,0,0,.28-1.726l-3.1-4.643-3.687-5.536a1.281,1.281,0,0,0-1.069-.573A1.278,1.278,0,0,0-3166.628-719.136Zm34.375,20.769a14.264,14.264,0,0,0-14.248-14.248.838.838,0,0,1-.839-.839.838.838,0,0,1,.839-.838,15.942,15.942,0,0,1,15.924,15.925.838.838,0,0,1-.838.838A.838.838,0,0,1-3132.253-698.367Zm-5.029,0a9.23,9.23,0,0,0-9.219-9.22.838.838,0,0,1-.839-.838.838.838,0,0,1,.839-.838,10.908,10.908,0,0,1,10.9,10.9.838.838,0,0,1-.839.838A.838.838,0,0,1-3137.282-698.367Zm-5.028,0a4.2,4.2,0,0,0-4.19-4.19.838.838,0,0,1-.839-.839.838.838,0,0,1,.839-.838,5.873,5.873,0,0,1,5.866,5.867.838.838,0,0,1-.838.838A.838.838,0,0,1-3142.311-698.367Z" transform="translate(3175 721)" fill="#204d77"/>
</svg>
