<svg id="whatsapp" xmlns="http://www.w3.org/2000/svg" width="50" height="50" viewBox="0 0 50 50">
  <g id="Group_2" data-name="Group 2" transform="translate(11.096 10.605)">
    <g id="Group_1" data-name="Group 1">
      <path id="Path_48" data-name="Path 48" d="M139.326,119.4A14.076,14.076,0,0,0,125.2,133.439a13.919,13.919,0,0,0,2.7,8.24l-1.788,5.232,5.45-1.744a14.208,14.208,0,0,0,21.974-11.728A14.179,14.179,0,0,0,139.326,119.4Zm8.284,19.837a4.3,4.3,0,0,1-2.79,1.962c-.741.087-.741.61-4.97-1-4.185-1.657-6.845-5.886-7.063-6.191a7.783,7.783,0,0,1-1.7-4.229,4.468,4.468,0,0,1,1.439-3.4,1.647,1.647,0,0,1,1.09-.523c.262,0,.567.044.785.044.262,0,.567-.131.916.7s1.177,2.834,1.264,3.052a.78.78,0,0,1,.044.7,5.627,5.627,0,0,1-.392.7c-.218.218-.436.523-.61.7-.218.218-.436.436-.174.828a13.981,13.981,0,0,0,2.311,2.834,12.042,12.042,0,0,0,3.314,2.049c.392.218.654.174.872-.087a13.077,13.077,0,0,0,1.308-1.613c.262-.392.567-.349.916-.218.392.131,2.4,1.134,2.834,1.352.392.218.7.305.785.48A2.991,2.991,0,0,1,147.61,139.237Z" transform="translate(-125.2 -119.4)" fill="#204d77"/>
    </g>
  </g>
  <g id="Group_4" data-name="Group 4">
    <g id="Group_3" data-name="Group 3" transform="translate(0 0)">
      <path id="Path_49" data-name="Path 49" d="M37.431.2H12.53A12.561,12.561,0,0,0,0,12.74V37.7A12.553,12.553,0,0,0,12.53,50.2H37.47A12.561,12.561,0,0,0,50,37.66V12.74A12.621,12.621,0,0,0,37.431.2ZM25.258,40a15.156,15.156,0,0,1-7.415-1.9L9.358,40.8l2.776-8.135A15.341,15.341,0,1,1,25.258,40Z" transform="translate(0 -0.2)" fill="#204d77"/>
    </g>
  </g>
</svg>
